<?xml version="1.0" encoding="UTF-8" standalone="no"?>
<!-- Created with Inkscape (http://www.inkscape.org/) -->

<svg
   width="34mm"
   height="36mm"
   viewBox="0 0 34 36"
   version="1.1"
   id="svg1"
   xml:space="preserve"
   inkscape:version="1.4.4 (dcaf3e7d9e, 2026-05-05)"
   sodipodi:docname="logo.svg"
   xmlns:inkscape="http://www.inkscape.org/namespaces/inkscape"
   xmlns:sodipodi="http://sodipodi.sourceforge.net/DTD/sodipodi-0.dtd"
   xmlns="http://www.w3.org/2000/svg"
   xmlns:svg="http://www.w3.org/2000/svg"><sodipodi:namedview
     id="namedview1"
     pagecolor="#ffffff"
     bordercolor="#000000"
     borderopacity="0.25"
     inkscape:showpageshadow="2"
     inkscape:pageopacity="0.0"
     inkscape:pagecheckerboard="0"
     inkscape:deskcolor="#d1d1d1"
     inkscape:document-units="mm"
     inkscape:zoom="0.90688833"
     inkscape:cx="142.79597"
     inkscape:cy="207.8536"
     inkscape:window-width="1280"
     inkscape:window-height="694"
     inkscape:window-x="0"
     inkscape:window-y="0"
     inkscape:window-maximized="1"
     inkscape:current-layer="layer1" /><defs
     id="defs1" /><g
     inkscape:label="Layer 1"
     inkscape:groupmode="layer"
     id="layer1"
     transform="translate(-89.187682,-75.678316)"><path
       style="fill:#000000;stroke-width:0.332607"
       d="m 113.89901,109.45614 -0.17109,-0.22253 h -1.65135 c -1.80677,0 -2.067,-0.05 -2.81561,-0.54155 -0.49929,-0.32779 -0.82631,-0.75188 -1.08696,-1.40967 l -0.19681,-0.49665 -0.54873,-0.0508 c -0.82452,-0.0763 -0.8653,-0.10821 -0.95961,-0.75033 -0.0239,-0.16223 -0.10328,-0.18042 -0.89516,-0.20489 -1.85625,-0.0574 -2.88315,0.25968 -3.65312,1.12785 -1.23669,1.39442 -1.65395,1.76576 -2.396796,2.13302 -0.967178,0.47815 -1.651765,0.58291 -3.432399,0.52524 -1.118432,-0.0363 -1.493271,-0.0822 -1.907041,-0.23356 -1.595687,-0.58395 -2.663791,-1.92199 -2.929269,-3.66954 -0.134264,-0.8838 -0.05466,-3.54235 0.122288,-4.08429 0.495899,-1.51876 1.105244,-2.284103 2.674801,-3.359582 0.779812,-0.534338 1.169687,-0.962762 1.294464,-1.422465 0.06065,-0.223416 0.09143,-3.101014 0.09175,-8.576376 6.57e-4,-9.148327 -0.03161,-8.631361 0.58867,-9.466525 0.215329,-0.289927 0.516572,-0.545776 0.890864,-0.756615 l 0.565517,-0.318561 h 5.926011 5.92601 l 0.42749,0.29845 c 0.23513,0.164146 1.70255,1.606164 3.26096,3.204485 2.3953,2.456663 2.84901,2.96269 2.93405,3.272416 0.0722,0.263097 0.1006,2.339564 0.1006,7.365866 v 6.999484 h -0.82597 -0.82597 l -0.0223,-6.653757 -0.0223,-6.653759 -2.30558,-0.04451 -2.30558,-0.0445 -0.40685,-0.244698 c -0.52316,-0.314645 -0.88291,-0.765477 -1.06099,-1.329634 -0.11404,-0.361241 -0.14171,-0.846758 -0.14171,-2.486002 V 79.32504 h -5.18691 -5.186908 l -0.337777,0.345583 -0.337773,0.345579 V 91.733258 103.4503 l 0.297604,0.33249 0.297603,0.3325 1.445767,0.0445 1.445764,0.0445 -0.49345,0.48957 c -0.271396,0.26927 -0.594324,0.62456 -0.717611,0.78953 l -0.224161,0.29997 -0.925682,-0.039 c -0.831233,-0.035 -0.973619,-0.0665 -1.395521,-0.30875 -0.270785,-0.15545 -0.608641,-0.45456 -0.797465,-0.706 -0.529472,-0.70506 -0.585905,-1.03156 -0.585905,-3.38987 0,-1.14162 -0.02936,-2.074282 -0.06525,-2.072593 -0.03589,0.0017 -0.417614,0.253882 -0.848277,0.560423 -0.969293,0.68995 -1.436136,1.33586 -1.645196,2.27626 -0.174691,0.78581 -0.184785,2.86599 -0.01743,3.5936 0.234619,1.0201 1.011032,1.8577 2.000751,2.15841 0.60698,0.18442 2.931528,0.18268 3.45732,-0.003 0.871047,-0.30691 1.194504,-0.55365 2.002837,-1.52775 0.8255,-0.99482 1.57885,-1.54252 2.64101,-1.92008 0.14356,-0.051 0.98486,-0.11715 1.86957,-0.14694 1.52113,-0.0512 1.60999,-0.0638 1.6347,-0.23219 0.0666,-0.45383 0.11716,-0.55505 0.32586,-0.65234 0.12303,-0.0574 0.43414,-0.10427 0.69136,-0.10427 0.46361,0 0.4686,-0.003 0.57356,-0.33379 0.14722,-0.46415 0.64272,-1.21 0.97666,-1.4701 0.15372,-0.11975 0.45568,-0.31311 0.67101,-0.42968 0.36942,-0.19999 0.49366,-0.21373 2.20053,-0.24321 1.77684,-0.0307 1.81274,-0.0351 2.01886,-0.24595 0.16925,-0.17315 0.29949,-0.21471 0.67297,-0.21471 0.28629,0 0.54001,0.0551 0.66455,0.14436 0.18802,0.13474 0.19945,0.19405 0.17159,0.89013 l -0.0298,0.74578 h 1.53134 c 1.58643,0 2.01748,0.0715 2.16817,0.35956 0.13601,0.26002 0.099,0.67144 -0.0809,0.89902 -0.16193,0.20483 -0.20918,0.21126 -1.86946,0.25465 l -1.70331,0.0445 -0.0261,1.35745 -0.0261,1.35747 h 1.68202 c 1.66985,0 1.68356,0.002 1.89557,0.21848 0.38523,0.39412 0.19591,1.19385 -0.28671,1.21119 -0.0838,0.003 -0.84719,6.7e-4 -1.69655,-0.005 l -1.54431,-0.0106 v 0.76172 c 0,0.97804 -0.10799,1.11778 -0.86372,1.11778 -0.44646,0 -0.53867,-0.0299 -0.6868,-0.22254 z m -0.10255,-4.45916 v -2.81242 l -1.58779,0.0308 c -1.5478,0.03 -1.59802,0.0369 -1.99267,0.27424 -0.30057,0.18078 -0.46304,0.36298 -0.63077,0.70733 -0.12426,0.2551 -0.22591,0.56332 -0.22591,0.68492 0,0.20599 0.022,0.19486 0.3214,-0.1631 0.51195,-0.61191 0.8238,-0.71179 2.22965,-0.71408 1.19427,-0.002 1.20242,-6.7e-4 1.18666,0.19833 -0.009,0.11015 -0.0115,1.19166 -0.006,2.40336 l 0.01,2.20308 h 0.34802 0.34801 z m -1.95953,-22.71366 c -0.86242,-0.868191 -1.67481,-1.675641 -1.80532,-1.794329 l -0.23727,-0.215797 v 1.535594 1.535592 l 0.25431,0.260195 0.25431,0.26019 1.551,-0.0013 1.55099,-0.0013 z m -11.75609,14.8733 c -0.488776,-0.101568 -0.674488,-0.834095 -0.306827,-1.210252 l 0.193822,-0.198302 h 5.790805 5.79081 l 0.20998,0.249752 c 0.26642,0.316892 0.26643,0.607788 4e-5,0.924711 l -0.20993,0.249752 -5.64101,0.01158 c -3.10256,0.0064 -5.72502,-0.0059 -5.82769,-0.02721 z m -0.260889,-3.889397 c -0.290914,-0.256012 -0.328331,-0.748177 -0.07838,-1.030761 0.159647,-0.180487 0.224541,-0.182455 6.014299,-0.182455 h 5.85289 l 0.18032,0.234538 c 0.24988,0.325006 0.22621,0.622346 -0.074,0.929485 l -0.25431,0.260192 h -5.70054 -5.70053 z m -0.04783,-3.798175 c -0.221354,-0.22647 -0.255694,-0.317205 -0.210553,-0.556331 0.02967,-0.157153 0.136464,-0.355828 0.237327,-0.441503 0.170583,-0.1449 0.585835,-0.155773 5.949785,-0.155773 5.36397,0 5.77922,0.01087 5.94981,0.155773 0.10086,0.08567 0.20765,0.28435 0.23732,0.441503 0.0452,0.239126 0.0108,0.329861 -0.21055,0.556331 l -0.2645,0.270608 h -5.71208 -5.71206 z"
       id="path1" /></g></svg>
