<svg xmlns="http://www.w3.org/2000/svg" viewBox="0 0 102 154">
  <path fill="currentColor" d="M48.205,153.434c-5.519-1.311-19.484-9.802-21.712-13.202-1.131-1.726.292-4.071 2.47-4.071.947 0 1.862.497 4.187 2.27 5.803 4.428 11.525 7.686 15.535 8.845 1.709.494 2.339.526 3.704.188 4.41-1.093 11.332-7.031 14.818-12.713 2.101-3.424 4.026-8.918 4.613-13.167.21-1.518.382-5.117.382-7.999 0-5.122-.02-5.263-.913-6.324l-.913-1.085H50.987 31.6l-.866.866-.866.866-.002 8.042c-.001 4.58-.163 8.622-.376 9.39-.478 1.722-2.57 4.047-4.384 4.873-2.64 1.202-6.217.595-8.74-1.485-1.961-1.616-6.355-9.018-8.417-14.18C3.0 104.0.514 92.456-.431 78.79c-.639-9.237.293-13.233 3.907-16.753 2.368-2.307 4.709-3.348 9.56-4.253 9.234-1.723 16.898-4.451 22.44-7.988 1.043-.665 4.396-3.126 8.061-5.913 4.793-3.646 9.068-3.578 14.111.225 7.875 5.939 10.951 7.787 16.757 10.07 3.034 1.193 8.3 2.606 12.803 3.435 7.6 1.4 11.32 4 13.343 9.326 2.493 6.562-.159 28.457-5.258 43.409-1.997 5.856-6.047 13.783-9.372 18.344-6.111 8.384-13.098 14.782-21.747 19.916-7.789 4.624-12.522 6.084-16.588 5.118zm28.582-22.29c9.103-10.56 13.907-20.635 17.119-35.905 1.74-8.273 2.837-22.476 1.976-25.61-.501-1.827-2.203-4.196-3.492-4.863-.545-.282-3.53-1.079-6.635-1.773-13.038-2.912-19.177-5.563-27.727-11.973-5.307-3.979-5.536-4.112-7.113-4.112-1.004 0-2.158.694-6.461 3.888-9.29 6.896-17.262 10.151-31.94 13.043-3.333.657-5.454 2.596-6.329 5.788-.542 1.978-.171 10.647.743 17.32 1.762 12.869 5.482 24.713 10.361 32.985 2.298 3.895 3.341 4.939 4.938 4.939 1.867 0 2.045-.953 1.922-10.283-.092-6.982-.031-8.046.532-9.296 1.224-2.716 3.312-4.302 6.209-4.715l1.622-.231.197-7.228c.221-8.082.494-9.25 3.106-13.277 6.237-9.615 19.857-10.954 28.139-2.767 4.223 4.175 5.41 7.896 5.418 16.986l.005 6.054 1.499.25c2.987.497 5.362 2.296 6.44 4.877.464 1.11.566 2.745.557 8.881-.013 8.054-.396 10.859-2.231 16.332-.467 1.392-.758 2.531-.646 2.531.111 0 .917-.829 1.79-1.842zm-13.128-35.553c.165-7.233-.73-10.781-3.525-13.964-2.46-2.802-6.427-4.281-10.468-3.904-4.316.403-7.679 2.86-9.807 7.166l-1.314 2.658-.149 6.319-.149 6.319 12.656-.093 12.656-.093zm-13.859 38.398c-1.428-.781-1.588-1.353-1.588-5.695 0-3.957-.051-4.264-.873-5.24-3.538-4.205-.325-9.952 5.004-8.952 3.704.695 5.218 5.819 2.56 8.664-1.034 1.106-1.047 1.173-1.047 5.124 0 4.513-.331 5.6-1.865 6.135-1.284.448-1.307.447-2.192-.037zM32.499 37.928c-.612-.612-.866-1.254-.866-2.192 0-1.153.259-1.57 1.982-3.2 2.538-2.4 5.914-4.389 9.483-5.587 2.237-.751 3.712-.983 7.115-1.119 3.895-.156 4.597-.085 7.577.77 4.268 1.224 7.595 3.04 10.394 5.671 2.072 1.948 2.255 2.24 2.255 3.59 0 1.168-.191 1.62-.93 2.201-1.528 1.202-2.6.946-5.287-1.264-4.043-3.325-8.493-5.053-13.009-5.051-4.987.002-9.192 1.615-13.229 5.072-2.67 2.287-4.031 2.561-5.484 1.108zm-8.953-9.22c-.841-.708-1.085-1.198-1.085-2.182 0-1.051.286-1.544 1.676-2.881 11.684-11.244 29.048-14.131 43.46-7.226 5.251 2.516 11.665 7.529 12.161 9.504.261 1.04-.554 2.808-1.538 3.335-1.441.771-2.41.39-5.517-2.17-3.93-3.239-7.394-5.204-11.678-6.624-10.51-3.485-22.247-1.251-30.584 5.82-4.465 3.787-5.036 3.988-6.895 2.424zm-8.67-8.332c-1.103-.632-1.564-1.416-1.576-2.676-.014-1.421 1.862-3.547 6.043-6.848 14.326-11.31 34.612-14.043 51.635-6.957 5.442 2.265 11.476 6.218 15.777 10.333 1.71 1.636 2.028 2.134 2.028 3.17 0 1.716-.287 2.293-1.436 2.887-1.626.841-2.204.631-4.947-1.79-4.94-4.362-11.711-8.411-17.076-10.21-3.881-1.301-8.177-2.012-13.229-2.188-5.629-.196-9.647.391-15.346 2.241-5.697 1.85-12.138 5.707-17.221 10.314-2.41 2.184-3.283 2.508-4.651 1.723z"/>
</svg>
